<?xml version="1.0" encoding="UTF-8"?><svg xmlns="http://www.w3.org/2000/svg" xmlns:xlink="http://www.w3.org/1999/xlink" height="169.6" preserveAspectRatio="xMidYMid meet" version="1.0" viewBox="-0.0 -0.0 222.0 169.6" width="222.0" zoomAndPan="magnify"><g fill="#231f20" id="change1_1"><path d="M86.338,45.1a41.925,41.925,0,0,0,37.127,37.127,419.986,419.986,0,0,0,45.1,2.056,420.249,420.249,0,0,0-45.1,2.056,41.926,41.926,0,0,0-37.127,37.127,420.249,420.249,0,0,0-2.056,45.1,419.986,419.986,0,0,0-2.056-45.1A41.925,41.925,0,0,0,45.1,86.338,420.221,420.221,0,0,0,0,84.282a419.958,419.958,0,0,0,45.1-2.056A41.924,41.924,0,0,0,82.226,45.1,419.958,419.958,0,0,0,84.282,0,420.221,420.221,0,0,0,86.338,45.1Z"/><path d="M180.435,107.105a21.217,21.217,0,0,0,18.788,18.788,212.816,212.816,0,0,0,22.822,1.04,212.816,212.816,0,0,0-22.822,1.04,21.217,21.217,0,0,0-18.788,18.788,212.573,212.573,0,0,0-1.04,22.823,212.53,212.53,0,0,0-1.041-22.823,21.216,21.216,0,0,0-18.788-18.788,212.816,212.816,0,0,0-22.822-1.04,212.816,212.816,0,0,0,22.822-1.04,21.216,21.216,0,0,0,18.788-18.788A212.544,212.544,0,0,0,179.4,84.282,212.587,212.587,0,0,0,180.435,107.105Z"/><path d="M148.375,22.939A12.953,12.953,0,0,0,159.846,34.41a129.75,129.75,0,0,0,13.935.635,130.014,130.014,0,0,0-13.935.635,12.954,12.954,0,0,0-11.471,11.472,129.743,129.743,0,0,0-.635,13.934,129.7,129.7,0,0,0-.636-13.934A12.954,12.954,0,0,0,135.633,35.68a130.014,130.014,0,0,0-13.935-.635,129.75,129.75,0,0,0,13.935-.635A12.953,12.953,0,0,0,147.1,22.939,129.721,129.721,0,0,0,147.74,9,129.764,129.764,0,0,0,148.375,22.939Z"/></g></svg>